<svg width="757" height="105" viewBox="0 0 757 105" fill="none" xmlns="http://www.w3.org/2000/svg">
<path d="M0.566406 75.4355V27.2422C0.566406 22.0664 2.76367 16.793 7.1582 11.4219C13.0176 4.39062 20.4395 0.826172 29.4238 0.728516V21.3828C25.4199 21.4805 22.7832 23.7266 21.5137 28.1211C21.3184 28.8047 21.2207 29.293 21.2207 29.5859V75.4355C21.2207 79.4395 23.418 82.1738 27.8125 83.6387C28.4961 83.834 28.9844 83.9316 29.2773 83.9316V104.732C23.7109 104.732 18.1445 102.73 12.5781 98.7266C4.66797 92.8672 0.664062 85.1035 0.566406 75.4355ZM37.334 104.732V83.9316C38.8965 83.9316 40.6543 83.1016 42.6074 81.4414C44.4629 79.7812 45.4395 77.7793 45.5371 75.4355V29.5859C45.5371 27.8281 44.707 25.9727 43.0469 24.0195C41.4844 22.3594 39.5801 21.4805 37.334 21.3828V0.728516C47.1973 0.728516 55.1074 4.97656 61.0645 13.4727C64.4824 18.3555 66.1914 22.9453 66.1914 27.2422V75.4355C66.1914 86.2754 61.3574 94.5762 51.6895 100.338C46.6113 103.268 41.8262 104.732 37.334 104.732ZM76.1523 104V1.46094H96.6602V104H76.1523ZM104.717 104V85.9824H105.449C111.309 85.9824 115.215 83.541 117.168 78.6582C117.852 77.0957 118.193 75.4844 118.193 73.8242C118.193 68.9414 116.24 65.4258 112.334 63.2773C110.381 62.2031 108.232 61.666 105.889 61.666H104.717V43.7949H105.889C111.357 43.7949 115.117 41.4512 117.168 36.7637C117.852 35.1035 118.193 33.3945 118.193 31.6367C118.193 26.8516 116.191 23.3359 112.188 21.0898C110.137 20.0156 107.891 19.4785 105.449 19.4785H104.717V1.46094H108.232C120.928 1.46094 129.863 6.09961 135.039 15.377C137.48 19.8691 138.701 24.8008 138.701 30.1719C138.701 38.668 136.113 45.5527 130.938 50.8262C130.156 51.5098 129.424 52.1445 128.74 52.7305C134.404 56.9297 137.676 63.3262 138.555 71.9199C138.652 73.0918 138.701 74.2148 138.701 75.2891C138.701 84.7617 135.381 92.1836 128.74 97.5547C123.271 101.852 116.436 104 108.232 104H104.717ZM148.809 77.4863V28.1211C148.809 22.457 150.908 16.9395 155.107 11.5684C160.674 4.43945 168.193 0.826172 177.666 0.728516V21.3828C173.564 21.4805 170.928 23.3848 169.756 27.0957C169.561 27.4863 169.463 27.8281 169.463 28.1211V77.4863C169.463 79.0488 170.293 80.5625 171.953 82.0273C173.516 83.3945 175.42 84.0781 177.666 84.0781V104.732C166.729 104.732 158.477 100.143 152.91 90.9629C150.176 86.2754 148.809 81.7832 148.809 77.4863ZM185.576 104.732V84.0781C185.576 84.0781 186.699 83.6387 188.945 82.7598C190.312 81.7832 191.24 80.7578 191.729 79.6836C192.217 78.4141 192.461 76.6074 192.461 74.2637V72.5059L212.676 77.3398C212.676 85.8359 209.258 92.8672 202.422 98.4336C197.246 102.633 191.631 104.732 185.576 104.732ZM185.576 21.3828V0.728516C192.705 0.728516 199.15 3.85352 204.912 10.1035C210.088 15.7676 212.676 21.8711 212.676 28.4141L192.461 33.6875V31.4902C192.461 29.0488 192.217 27.2422 191.729 26.0703C191.338 25.0938 190.605 24.2148 189.531 23.4336C188.555 22.6523 187.676 22.1152 186.895 21.8223L185.576 21.3828ZM217.363 1.46094H238.896L257.939 66.9395V104H236.553V67.0859L217.363 1.46094ZM252.959 21.2363L258.672 1.46094H279.912L263.945 55.5137H262.627L252.959 21.2363ZM287.822 103.854V1.46094H341.143V21.9688H308.477V42.7695H327.373V63.4238H308.477V103.854H287.822ZM351.104 104V1.46094H404.424V21.9688H371.758V42.7695H390.654V63.4238H371.758V83.3457H404.424V104H351.104ZM412.92 80.8555L431.523 74.2637C431.523 76.7051 432.207 78.8535 433.574 80.709C434.941 82.5645 436.309 83.7852 437.676 84.3711L439.727 85.3965V104.439C431.426 104.439 424.346 100.826 418.486 93.5996C414.873 89.0098 413.018 84.7617 412.92 80.8555ZM414.092 29.5859C414.092 18.8438 418.682 10.7871 427.861 5.41602C432.061 2.87695 436.016 1.55859 439.727 1.46094V20.7969C437.285 21.4805 435.479 23.2383 434.307 26.0703C433.916 26.9492 433.721 27.877 433.721 28.8535C433.721 32.8574 436.699 36.2754 442.656 39.1074C443.926 39.6934 445.977 40.5723 448.809 41.7441C453.496 43.5996 456.816 45.1133 458.77 46.2852C466.68 50.9727 471.953 55.7578 474.59 60.6406C476.543 64.4492 477.52 68.6973 477.52 73.3848C477.52 82.2715 474.15 89.8887 467.412 96.2363C461.65 101.705 455.107 104.439 447.783 104.439V85.3965C451.592 84.9082 454.277 82.9062 455.84 79.3906C456.523 77.8281 456.865 76.1191 456.865 74.2637C456.865 69.2832 453.154 65.1816 445.732 61.959C444.365 61.373 442.217 60.543 439.287 59.4688C435.869 58.2969 433.477 57.3691 432.109 56.6855C423.711 52.6816 418.34 47.5059 415.996 41.1582C414.727 37.7402 414.092 33.8828 414.092 29.5859ZM447.783 20.7969V1.46094C455.986 1.46094 462.871 4.92773 468.438 11.8613C471.66 15.9629 473.32 19.6738 473.418 22.9941L454.375 29.293C454.375 25.1914 452.373 22.4082 448.369 20.9434C447.979 20.8457 447.783 20.7969 447.783 20.7969ZM482.646 21.6758V1.46094H546.074V21.6758H524.688V104H504.033V21.6758H482.646ZM622.686 104V84.957C628.643 84.3711 632.158 81.8809 633.232 77.4863C633.428 76.6074 633.525 75.6797 633.525 74.7031C633.525 68.8438 630.791 65.1328 625.322 63.5703C622.49 62.6914 618.926 62.252 614.629 62.252V43.209C625.762 43.209 631.963 40.1816 633.232 34.127C633.428 33.0527 633.525 31.9297 633.525 30.7578C633.525 25.3867 630.596 22.0664 624.736 20.7969C623.955 20.6992 623.271 20.6016 622.686 20.5039V1.46094C630.889 1.46094 637.871 4.04883 643.633 9.22461C649.59 14.5957 652.568 21.7246 652.568 30.6113C652.568 40.1816 649.639 47.3105 643.779 51.998C643.389 52.291 643.047 52.5352 642.754 52.7305C648.125 56.3438 651.299 62.1543 652.275 70.1621C652.471 71.7246 652.568 73.2871 652.568 74.8496C652.568 86.8613 647.539 95.4062 637.48 100.484C632.695 102.828 627.764 104 622.686 104ZM587.822 77.7793L605.547 74.4102C605.547 79.5859 607.744 82.9551 612.139 84.5176C613.115 84.8105 613.945 84.957 614.629 84.957V104C606.816 104 600.127 100.826 594.561 94.4785C590.068 89.3027 587.822 83.7363 587.822 77.7793ZM587.822 27.6816C587.822 20.3574 590.85 13.9609 596.904 8.49219C602.178 3.80469 608.086 1.46094 614.629 1.46094V20.5039C610.527 20.9922 607.744 23.043 606.279 26.6562C605.791 28.0234 605.547 29.4883 605.547 31.0508L587.822 27.6816ZM661.357 93.7461C661.357 89.3516 663.262 86.0801 667.07 83.9316C668.73 83.0527 670.488 82.6133 672.344 82.6133C676.738 82.6133 679.961 84.5176 682.012 88.3262C682.891 89.9863 683.33 91.793 683.33 93.7461C683.33 98.2383 681.377 101.461 677.471 103.414C675.811 104.293 674.102 104.732 672.344 104.732C667.852 104.732 664.629 102.779 662.676 98.873C661.797 97.2129 661.357 95.5039 661.357 93.7461ZM720.244 104C706.279 104 697.49 94.2832 693.877 74.8496C692.705 68.4043 692.119 61.0312 692.119 52.7305C692.119 21.4805 700.078 4.48828 715.996 1.75391C717.363 1.55859 718.779 1.46094 720.244 1.46094V21.0898C715.264 22.2617 712.529 29.3418 712.041 42.3301C711.943 44.5762 711.895 47.5059 711.895 51.1191V54.3418C711.895 67.8184 713.066 76.5098 715.41 80.416C716.68 82.5645 718.291 83.8828 720.244 84.3711V104ZM728.301 104V84.3711C733.281 83.1992 736.016 76.1191 736.504 63.1309C736.602 60.8848 736.65 57.9551 736.65 54.3418V51.1191C736.65 37.6426 735.479 28.9512 733.135 25.0449C731.865 22.8965 730.254 21.5781 728.301 21.0898V1.46094C742.266 1.46094 751.055 11.1777 754.668 30.6113C755.84 37.0566 756.426 44.4297 756.426 52.7305C756.426 83.9805 748.467 100.973 732.549 103.707C731.182 103.902 729.766 104 728.301 104Z" fill="white"/>
</svg>
