<svg width="143" height="134" viewBox="0 0 143 134" fill="none" xmlns="http://www.w3.org/2000/svg">
<path d="M45 1H116.5L142 39L86 40L92 29.5H123L117.5 21.4792H44L39.5 28.5H82L58.5 67L72.5 90H38L31.5 80H54.5L45 67.5L63.5 40L19.5 39.5L45 1Z" fill="#DFFF1B"/>
<path d="M16 44H49L42.5 55H21.5L14 67L44 113H118L122.5 105.5H47L40.5 95.5H141.5L118 133.5H44L1 67L16 44Z" fill="#DFFF1B"/>
<path d="M115.8 19L111 12H50.5L46 19H115.8ZM115.8 19L117.5 21.4792M117.5 21.4792L123 29.5H92L86 40L142 39L116.5 1H45L19.5 39.5L63.5 40L45 67.5L54.5 80H31.5L38 90H72.5L58.5 67L82 28.5H39.5L44 21.4792H117.5ZM44 113L14 67L21.5 55H42.5L49 44H16L1 67L44 133.5H118L141.5 95.5H40.5L47 105.5H122.5L118 113H44ZM44 113L45 114.75M45 114.75L50 123.5H111.5L117 115L45 114.75Z" stroke="black"/>
<path d="M45.5 115H116.499L111.5 123.5H49.9993L45.5 115Z" fill="black"/>
<path d="M45 19.5H115.999L111 11H49.4993L45 19.5Z" fill="black"/>
</svg>
