<svg width="180" height="53" viewBox="0 0 180 53" fill="none" xmlns="http://www.w3.org/2000/svg">
<path d="M28.2892 23.51V23.51C29.4738 23.51 30.4341 24.4703 30.4341 25.6549V26.4273C30.4341 28.0385 29.128 29.3446 27.5168 29.3446H27.1878C24.2507 29.3446 22.1831 28.2387 20.985 26.0269C19.0527 28.7345 16.1349 30.0882 12.2316 30.0882V30.0882C9.54185 30.0882 6.26073 32.0289 6.26073 34.7187V37.6546C6.26073 39.3835 4.85922 40.785 3.13036 40.785V40.785C1.40151 40.785 0 39.3835 0 37.6546V3.87399C0 2.14514 1.40151 0.743625 3.13036 0.743625V0.743625C4.85922 0.743625 6.26073 2.14514 6.26073 3.87399V17.6754C6.26073 19.7728 6.84042 21.4126 7.99982 22.5948C9.15921 23.7388 10.7244 24.3108 12.6954 24.3108C14.9369 24.3108 16.7339 23.6435 18.0865 22.3088C19.4392 20.9359 20.1155 18.8385 20.1155 16.0166V3.87399C20.1155 2.14514 21.517 0.743625 23.2458 0.743625V0.743625C24.9747 0.743625 26.3762 2.14514 26.3762 3.87399V21.6223C26.3762 22.1944 26.5501 22.652 26.8979 22.9952C27.2458 23.3384 27.7095 23.51 28.2892 23.51Z" fill="white"/>
<path d="M42.624 14.7917C42.624 19.354 46.3225 23.0524 50.8847 23.0524H55.9993C57.7368 23.0524 59.1454 24.461 59.1454 26.1985V26.1985C59.1454 27.936 57.7368 29.3446 55.9993 29.3446H47.5515C41.1483 29.3446 35.9575 24.1538 35.9575 17.7507V4.0768C35.9575 2.2359 37.4499 0.743547 39.2908 0.743547V0.743547C41.1317 0.743547 42.624 2.2359 42.624 4.07681V14.7917Z" fill="white"/>
<path d="M70.1085 17.6754C68.8732 17.6754 67.9335 18.835 68.4955 19.9352C69.0654 21.0508 69.866 21.9755 70.8974 22.7092C72.5592 23.8532 74.5881 24.4252 76.9842 24.4252C79.221 24.4252 81.0814 23.8898 82.5655 22.8189C83.8171 21.9158 85.4867 21.4693 86.8238 22.2402V22.2402C88.3316 23.1095 88.7981 25.1144 87.5265 26.3027C84.826 28.8264 81.2926 30.0882 76.9262 30.0882C72.2114 30.0882 68.4047 28.6773 65.5062 25.8553C62.6077 22.9952 61.1585 19.3915 61.1585 15.0441C61.1585 10.773 62.5884 7.20745 65.4482 4.34735C68.3081 1.44912 71.9795 0 76.4625 0C80.7136 0 84.1918 1.46818 86.897 4.40455C89.6409 7.34092 91.0129 10.9065 91.0129 15.1013V15.1013C91.0129 16.5862 89.6793 17.6754 88.1944 17.6754H70.1085ZM67.6511 12.6416H84.6942C84.2691 10.3154 83.2836 8.56123 81.7377 7.37905C80.2305 6.19688 78.4528 5.60579 76.4045 5.60579C74.0857 5.60579 72.1534 6.23501 70.6075 7.49346C69.0617 8.7519 68.0762 10.468 67.6511 12.6416Z" fill="white"/>
<path d="M119.308 3.87399C119.308 2.14514 120.709 0.743625 122.438 0.743625V0.743625C124.167 0.743625 125.569 2.14514 125.569 3.87399V26.2142C125.569 27.9431 124.167 29.3446 122.438 29.3446V29.3446C120.709 29.3446 119.308 27.9431 119.308 26.2142V25.2261C116.951 28.4675 113.569 30.0882 109.163 30.0882C105.183 30.0882 101.782 28.6391 98.9606 25.7409C96.1394 22.8045 94.7288 19.2389 94.7288 15.0441C94.7288 10.8112 96.1394 7.24558 98.9606 4.34735C101.782 1.44912 105.183 0 109.163 0C113.569 0 116.951 1.60165 119.308 4.80496V3.87399ZM103.598 21.6223C105.337 23.3384 107.521 24.1964 110.149 24.1964C112.777 24.1964 114.96 23.3384 116.699 21.6223C118.438 19.8682 119.308 17.6754 119.308 15.0441C119.308 12.4128 118.438 10.2392 116.699 8.52309C114.96 6.7689 112.777 5.8918 110.149 5.8918C107.521 5.8918 105.337 6.7689 103.598 8.52309C101.859 10.2392 100.99 12.4128 100.99 15.0441C100.99 17.6754 101.859 19.8682 103.598 21.6223Z" fill="white"/>
<path d="M139.127 5.54859C140.287 2.95185 142.193 1.30576 144.845 0.610341C146.576 0.156459 148.054 1.67936 148.054 3.46871V3.46871C148.054 5.33905 146.434 6.74568 144.634 7.25219C143.613 7.53949 142.666 8.00126 141.793 8.6375C140.016 9.89594 139.127 11.9933 139.127 14.9297V26.2142C139.127 27.9431 137.725 29.3446 135.996 29.3446V29.3446C134.268 29.3446 132.866 27.9431 132.866 26.2142V3.87399C132.866 2.14514 134.268 0.743625 135.996 0.743625V0.743625C137.725 0.743625 139.127 2.14514 139.127 3.87399V5.54859Z" fill="white"/>
<path d="M167.926 0C171.25 0 173.936 1.0487 175.984 3.14611C178.032 5.24351 179.056 8.12268 179.056 11.7836V26.2142C179.056 27.9431 177.655 29.3446 175.926 29.3446V29.3446C174.197 29.3446 172.795 27.9431 172.795 26.2143V12.4128C172.795 10.2773 172.216 8.63749 171.056 7.49346C169.897 6.34942 168.312 5.7774 166.303 5.7774C164.1 5.7774 162.322 6.46382 160.97 7.83667C159.617 9.17138 158.941 11.2307 158.941 14.0145V26.2142C158.941 27.9431 157.539 29.3446 155.81 29.3446V29.3446C154.081 29.3446 152.68 27.9431 152.68 26.2142V3.87399C152.68 2.14513 154.081 0.743625 155.81 0.743625V0.743625C157.539 0.743625 158.941 2.14514 158.941 3.87399V4.40455C160.834 1.46818 163.829 0 167.926 0Z" fill="white"/>
<path d="M137.932 52.7221C136.968 52.7221 136.084 52.5531 135.279 52.215C134.474 51.8649 133.772 51.382 133.175 50.7662C132.589 50.1384 132.132 49.4019 131.803 48.5568C131.473 47.7117 131.309 46.782 131.309 45.7679C131.309 44.7537 131.473 43.824 131.803 42.9789C132.132 42.1338 132.589 41.3973 133.175 40.7695C133.772 40.1417 134.474 39.6587 135.279 39.3207C136.084 38.9706 136.968 38.7955 137.932 38.7955C138.859 38.7955 139.688 38.9585 140.42 39.2845C141.164 39.6105 141.786 40.033 142.286 40.5522C142.798 41.0593 143.164 41.5965 143.384 42.164L142.012 42.7616C141.67 41.9768 141.146 41.349 140.438 40.8782C139.743 40.3952 138.907 40.1538 137.932 40.1538C136.931 40.1538 136.041 40.3892 135.26 40.86C134.48 41.3309 133.87 41.9889 133.431 42.834C132.992 43.6671 132.772 44.645 132.772 45.7679C132.772 46.8786 132.992 47.8565 133.431 48.7017C133.87 49.5468 134.48 50.2048 135.26 50.6757C136.041 51.1344 136.931 51.3638 137.932 51.3638C138.907 51.3638 139.743 51.1284 140.438 50.6576C141.146 50.1867 141.67 49.5589 142.012 48.7741L143.384 49.3717C143.164 49.9271 142.798 50.4644 142.286 50.9835C141.786 51.4906 141.164 51.9071 140.42 52.2331C139.688 52.5591 138.859 52.7221 137.932 52.7221Z" fill="white"/>
<path d="M152.225 52.7221C151.262 52.7221 150.377 52.5531 149.572 52.215C148.767 51.8649 148.066 51.382 147.468 50.7662C146.883 50.1384 146.425 49.4019 146.096 48.5568C145.767 47.7117 145.602 46.782 145.602 45.7679C145.602 44.7537 145.767 43.824 146.096 42.9789C146.425 42.1338 146.883 41.3973 147.468 40.7695C148.066 40.1417 148.767 39.6587 149.572 39.3207C150.377 38.9706 151.262 38.7955 152.225 38.7955C153.152 38.7955 153.982 38.9585 154.713 39.2845C155.457 39.6105 156.079 40.033 156.58 40.5522C157.092 41.0593 157.458 41.5965 157.677 42.164L156.305 42.7616C155.964 41.9768 155.439 41.349 154.732 40.8782C154.036 40.3952 153.201 40.1538 152.225 40.1538C151.225 40.1538 150.335 40.3892 149.554 40.86C148.773 41.3309 148.164 41.9889 147.724 42.834C147.285 43.6671 147.066 44.645 147.066 45.7679C147.066 46.8786 147.285 47.8565 147.724 48.7017C148.164 49.5468 148.773 50.2048 149.554 50.6757C150.335 51.1344 151.225 51.3638 152.225 51.3638C153.201 51.3638 154.036 51.1284 154.732 50.6576C155.439 50.1867 155.964 49.5589 156.305 48.7741L157.677 49.3717C157.458 49.9271 157.092 50.4644 156.58 50.9835C156.079 51.4906 155.457 51.9071 154.713 52.2331C153.982 52.5591 153.152 52.7221 152.225 52.7221Z" fill="white"/>
<path d="M160.298 52.5048V39.0128H169.08V40.3711H161.762V45.0616H168.714V46.4198H161.762V51.1465H169.08V52.5048H160.298Z" fill="white"/>
<path d="M173.861 52.5048V40.3711H170.092V39.0128H179.057V40.3711H175.325V52.5048H173.861Z" fill="white"/>
</svg>
