<svg width="393" height="134" viewBox="0 0 393 134" fill="none" xmlns="http://www.w3.org/2000/svg">
<path d="M45 1H116.5L142 39L86 40L92 29.5H123L117.5 21.4792H44L39.5 28.5H82L58.5 67L72.5 90H38L31.5 80H54.5L45 67.5L63.5 40L19.5 39.5L45 1Z" fill="#DFFF1B"/>
<path d="M16 44H49L42.5 55H21.5L14 67L44 113H118L122.5 105.5H47L40.5 95.5H141.5L118 133.5H44L1 67L16 44Z" fill="#DFFF1B"/>
<path d="M115.8 19L111 12H50.5L46 19H115.8ZM115.8 19L117.5 21.4792M117.5 21.4792L123 29.5H92L86 40L142 39L116.5 1H45L19.5 39.5L63.5 40L45 67.5L54.5 80H31.5L38 90H72.5L58.5 67L82 28.5H39.5L44 21.4792H117.5ZM44 113L14 67L21.5 55H42.5L49 44H16L1 67L44 133.5H118L141.5 95.5H40.5L47 105.5H122.5L118 113H44ZM44 113L45 114.75M45 114.75L50 123.5H111.5L117 115L45 114.75Z" stroke="black"/>
<path d="M45.5 115H116.499L111.5 123.5H49.9993L45.5 115Z" fill="black"/>
<path d="M45 19.5H115.999L111 11H49.4993L45 19.5Z" fill="black"/>
<path d="M103.25 83.23C100.889 83.23 98.7573 82.77 96.856 81.85C94.9547 80.93 93.314 79.688 91.934 78.124C90.554 76.5293 89.4807 74.7507 88.714 72.788C87.978 70.7947 87.61 68.7553 87.61 66.67C87.61 64.4927 88.0087 62.4227 88.806 60.46C89.6033 58.4667 90.7073 56.7033 92.118 55.17C93.5287 53.606 95.1847 52.3793 97.086 51.49C99.018 50.57 101.103 50.11 103.342 50.11C105.673 50.11 107.789 50.5853 109.69 51.536C111.622 52.4867 113.263 53.7593 114.612 55.354C115.992 56.9487 117.05 58.7273 117.786 60.69C118.553 62.6527 118.936 64.6613 118.936 66.716C118.936 68.8933 118.537 70.9787 117.74 72.972C116.973 74.9347 115.885 76.698 114.474 78.262C113.063 79.7953 111.392 81.0067 109.46 81.896C107.559 82.7853 105.489 83.23 103.25 83.23ZM92.854 66.67C92.854 68.2033 93.0993 69.6907 93.59 71.132C94.0807 72.5733 94.7707 73.8613 95.66 74.996C96.58 76.1 97.684 76.974 98.972 77.618C100.26 78.262 101.701 78.584 103.296 78.584C104.952 78.584 106.424 78.2467 107.712 77.572C109 76.8973 110.073 75.9927 110.932 74.858C111.821 73.6927 112.496 72.4047 112.956 70.994C113.416 69.5527 113.646 68.1113 113.646 66.67C113.646 65.1367 113.401 63.6647 112.91 62.254C112.45 60.8127 111.76 59.54 110.84 58.436C109.92 57.3013 108.816 56.412 107.528 55.768C106.271 55.124 104.86 54.802 103.296 54.802C101.64 54.802 100.168 55.1393 98.88 55.814C97.592 56.4887 96.5033 57.3933 95.614 58.528C94.7247 59.6627 94.0347 60.9353 93.544 62.346C93.084 63.7567 92.854 65.198 92.854 66.67ZM154.998 74.582C154.998 76.33 154.538 77.8327 153.618 79.09C152.729 80.3473 151.517 81.3133 149.984 81.988C148.451 82.6627 146.764 83 144.924 83H129.33V50.34H146.166C147.699 50.34 149.018 50.754 150.122 51.582C151.257 52.3793 152.115 53.422 152.698 54.71C153.311 55.9673 153.618 57.286 153.618 58.666C153.618 60.2607 153.204 61.7633 152.376 63.174C151.579 64.554 150.429 65.5813 148.926 66.256C150.797 66.808 152.269 67.82 153.342 69.292C154.446 70.7333 154.998 72.4967 154.998 74.582ZM149.708 73.616C149.708 72.696 149.509 71.868 149.11 71.132C148.742 70.3653 148.221 69.752 147.546 69.292C146.902 68.8013 146.135 68.556 145.246 68.556H134.482V78.538H144.924C145.844 78.538 146.657 78.3233 147.362 77.894C148.098 77.434 148.665 76.836 149.064 76.1C149.493 75.3333 149.708 74.5053 149.708 73.616ZM134.482 54.802V64.416H143.958C144.817 64.416 145.583 64.2167 146.258 63.818C146.933 63.3887 147.469 62.8213 147.868 62.116C148.267 61.38 148.466 60.552 148.466 59.632C148.466 58.6813 148.282 57.8533 147.914 57.148C147.546 56.412 147.04 55.8447 146.396 55.446C145.783 55.0167 145.062 54.802 144.234 54.802H134.482ZM163.361 66.44C163.361 64.4467 163.714 62.4993 164.419 60.598C165.124 58.666 166.152 56.918 167.501 55.354C168.881 53.7593 170.552 52.502 172.515 51.582C174.478 50.6313 176.701 50.156 179.185 50.156C182.129 50.156 184.674 50.8307 186.821 52.18C188.968 53.4987 190.562 55.2007 191.605 57.286L187.557 60C186.944 58.6813 186.162 57.6387 185.211 56.872C184.291 56.1053 183.279 55.5687 182.175 55.262C181.102 54.9553 180.044 54.802 179.001 54.802C177.284 54.802 175.781 55.1547 174.493 55.86C173.205 56.5347 172.116 57.4393 171.227 58.574C170.368 59.7087 169.709 60.9813 169.249 62.392C168.82 63.8027 168.605 65.2133 168.605 66.624C168.605 68.188 168.866 69.706 169.387 71.178C169.908 72.6193 170.629 73.9073 171.549 75.042C172.5 76.146 173.619 77.02 174.907 77.664C176.195 78.308 177.606 78.63 179.139 78.63C180.182 78.63 181.27 78.446 182.405 78.078C183.54 77.71 184.582 77.1427 185.533 76.376C186.514 75.5787 187.281 74.536 187.833 73.248L192.111 75.686C191.436 77.3113 190.378 78.6913 188.937 79.826C187.526 80.9607 185.932 81.8193 184.153 82.402C182.405 82.9847 180.672 83.276 178.955 83.276C176.655 83.276 174.554 82.8007 172.653 81.85C170.752 80.8687 169.111 79.5807 167.731 77.986C166.351 76.3607 165.278 74.5513 164.511 72.558C163.744 70.534 163.361 68.4947 163.361 66.44ZM203.475 50.34L212.491 66.578L221.599 50.34H227.257L215.067 71.316V83H209.915V71.224L197.817 50.34H203.475ZM236.375 83V50.34H247.967C251.494 50.34 254.438 51.076 256.799 52.548C259.16 53.9893 260.924 55.952 262.089 58.436C263.285 60.8893 263.883 63.6187 263.883 66.624C263.883 69.936 263.224 72.8187 261.905 75.272C260.617 77.7253 258.777 79.6267 256.385 80.976C253.993 82.3253 251.187 83 247.967 83H236.375ZM258.639 66.624C258.639 64.324 258.21 62.3 257.351 60.552C256.523 58.7733 255.312 57.3933 253.717 56.412C252.153 55.4 250.236 54.894 247.967 54.894H241.527V78.446H247.967C250.267 78.446 252.199 77.9247 253.763 76.882C255.358 75.8393 256.569 74.4287 257.397 72.65C258.225 70.8713 258.639 68.8627 258.639 66.624ZM274.363 83V50.34H279.515V83H274.363ZM301.386 50.34H306.262L318.958 83H313.53L310.08 74.122H297.476L294.072 83H288.598L301.386 50.34ZM309.068 70.304L303.824 55.998L298.396 70.304H309.068ZM333.209 59.908V83H328.057V50.34H332.289L350.781 73.938V50.386H355.979V83H351.471L333.209 59.908ZM387.701 58.022C387.394 57.6847 386.949 57.332 386.367 56.964C385.784 56.5653 385.094 56.1973 384.297 55.86C383.499 55.5227 382.641 55.2467 381.721 55.032C380.801 54.8173 379.85 54.71 378.869 54.71C376.722 54.71 375.127 55.1087 374.085 55.906C373.042 56.7033 372.521 57.8073 372.521 59.218C372.521 60.2607 372.812 61.0887 373.395 61.702C373.977 62.2847 374.867 62.7753 376.063 63.174C377.259 63.5727 378.761 64.002 380.571 64.462C382.779 64.9833 384.695 65.612 386.321 66.348C387.946 67.0533 389.188 68.004 390.047 69.2C390.905 70.396 391.335 71.9753 391.335 73.938C391.335 75.594 391.028 77.02 390.415 78.216C389.801 79.412 388.943 80.3933 387.839 81.16C386.735 81.896 385.462 82.448 384.021 82.816C382.579 83.1533 381.031 83.322 379.375 83.322C377.749 83.322 376.124 83.1533 374.499 82.816C372.904 82.4787 371.371 81.988 369.899 81.344C368.457 80.6693 367.123 79.8567 365.897 78.906L368.243 74.49C368.641 74.8887 369.209 75.3333 369.945 75.824C370.711 76.284 371.585 76.7287 372.567 77.158C373.579 77.5873 374.667 77.9553 375.833 78.262C377.029 78.538 378.24 78.676 379.467 78.676C381.521 78.676 383.085 78.3233 384.159 77.618C385.263 76.882 385.815 75.8393 385.815 74.49C385.815 73.386 385.462 72.512 384.757 71.868C384.051 71.1933 383.024 70.626 381.675 70.166C380.325 69.706 378.715 69.246 376.845 68.786C374.698 68.2033 372.904 67.5747 371.463 66.9C370.021 66.1947 368.933 65.3053 368.197 64.232C367.491 63.128 367.139 61.7327 367.139 60.046C367.139 57.8993 367.66 56.09 368.703 54.618C369.745 53.1153 371.156 51.996 372.935 51.26C374.744 50.4933 376.768 50.11 379.007 50.11C380.479 50.11 381.874 50.2787 383.193 50.616C384.511 50.9227 385.738 51.352 386.873 51.904C388.038 52.456 389.096 53.0847 390.047 53.79L387.701 58.022Z" fill="#DFFF1B"/>
<path d="M150.11 108V97.35H153.98C155.14 97.35 156.11 97.59 156.89 98.07C157.67 98.54 158.255 99.18 158.645 99.99C159.035 100.79 159.23 101.68 159.23 102.66C159.23 103.74 159.015 104.68 158.585 105.48C158.155 106.28 157.545 106.9 156.755 107.34C155.975 107.78 155.05 108 153.98 108H150.11ZM157.145 102.66C157.145 101.97 157.02 101.365 156.77 100.845C156.52 100.315 156.16 99.905 155.69 99.615C155.22 99.315 154.65 99.165 153.98 99.165H152.18V106.185H153.98C154.66 106.185 155.235 106.035 155.705 105.735C156.175 105.425 156.53 105.005 156.77 104.475C157.02 103.935 157.145 103.33 157.145 102.66ZM169.892 106.185V108H162.497V97.35H169.757V99.165H164.567V101.73H169.052V103.41H164.567V106.185H169.892ZM173.156 108V97.35H177.671C178.161 97.35 178.611 97.45 179.021 97.65C179.431 97.85 179.786 98.12 180.086 98.46C180.396 98.8 180.636 99.18 180.806 99.6C180.976 100.02 181.061 100.45 181.061 100.89C181.061 101.49 180.921 102.06 180.641 102.6C180.361 103.14 179.976 103.58 179.486 103.92C178.996 104.26 178.416 104.43 177.746 104.43H175.226V108H173.156ZM175.226 102.615H177.626C177.876 102.615 178.101 102.545 178.301 102.405C178.501 102.265 178.661 102.065 178.781 101.805C178.901 101.535 178.961 101.23 178.961 100.89C178.961 100.52 178.891 100.205 178.751 99.945C178.621 99.685 178.446 99.49 178.226 99.36C178.016 99.23 177.786 99.165 177.536 99.165H175.226V102.615ZM186.27 97.35H188.37L192.285 108H190.155L189.165 105.345H185.445L184.47 108H182.34L186.27 97.35ZM188.79 103.89L187.32 99.495L185.79 103.89H188.79ZM195.104 108V97.35H199.814C200.304 97.35 200.754 97.45 201.164 97.65C201.584 97.85 201.944 98.12 202.244 98.46C202.554 98.8 202.789 99.18 202.949 99.6C203.119 100.02 203.204 100.45 203.204 100.89C203.204 101.34 203.124 101.775 202.964 102.195C202.814 102.605 202.594 102.965 202.304 103.275C202.014 103.585 201.674 103.825 201.284 103.995L203.714 108H201.434L199.244 104.43H197.174V108H195.104ZM197.174 102.615H199.769C200.029 102.615 200.259 102.54 200.459 102.39C200.659 102.23 200.819 102.02 200.939 101.76C201.059 101.5 201.119 101.21 201.119 100.89C201.119 100.55 201.049 100.255 200.909 100.005C200.769 99.745 200.589 99.54 200.369 99.39C200.159 99.24 199.929 99.165 199.679 99.165H197.174V102.615ZM214.577 99.165H211.172V108H209.117V99.165H205.712V97.35H214.577V99.165ZM226.234 108V101.01L223.504 106.215H222.349L219.619 101.01V108H217.549V97.35H219.769L222.919 103.41L226.099 97.35H228.304V108H226.234ZM239.573 106.185V108H232.178V97.35H239.438V99.165H234.248V101.73H238.733V103.41H234.248V106.185H239.573ZM244.906 101.16V108H242.836V97.35H244.486L249.991 104.37V97.365H252.061V108H250.336L244.906 101.16ZM263.892 99.165H260.487V108H258.432V99.165H255.027V97.35H263.892V99.165ZM276.223 108.075C275.443 108.075 274.733 107.925 274.093 107.625C273.463 107.325 272.918 106.92 272.458 106.41C272.008 105.89 271.658 105.31 271.408 104.67C271.158 104.02 271.033 103.355 271.033 102.675C271.033 101.965 271.163 101.29 271.423 100.65C271.693 100 272.058 99.425 272.518 98.925C272.988 98.415 273.538 98.015 274.168 97.725C274.808 97.425 275.508 97.275 276.268 97.275C277.038 97.275 277.738 97.43 278.368 97.74C279.008 98.05 279.553 98.465 280.003 98.985C280.453 99.505 280.803 100.085 281.053 100.725C281.303 101.365 281.428 102.025 281.428 102.705C281.428 103.405 281.298 104.08 281.038 104.73C280.778 105.37 280.413 105.945 279.943 106.455C279.483 106.955 278.933 107.35 278.293 107.64C277.663 107.93 276.973 108.075 276.223 108.075ZM273.133 102.675C273.133 103.135 273.203 103.58 273.343 104.01C273.483 104.44 273.683 104.825 273.943 105.165C274.213 105.495 274.538 105.76 274.918 105.96C275.308 106.15 275.748 106.245 276.238 106.245C276.738 106.245 277.183 106.145 277.573 105.945C277.963 105.735 278.288 105.46 278.548 105.12C278.808 104.77 279.003 104.385 279.133 103.965C279.273 103.535 279.343 103.105 279.343 102.675C279.343 102.215 279.268 101.775 279.118 101.355C278.978 100.925 278.773 100.545 278.503 100.215C278.243 99.875 277.918 99.61 277.528 99.42C277.148 99.22 276.718 99.12 276.238 99.12C275.728 99.12 275.278 99.225 274.888 99.435C274.508 99.635 274.188 99.905 273.928 100.245C273.668 100.585 273.468 100.965 273.328 101.385C273.198 101.805 273.133 102.235 273.133 102.675ZM284.666 108V97.35H291.821V99.165H286.736V101.91H290.966V103.59H286.736V108H284.666ZM299.157 102.6C299.157 101.95 299.272 101.315 299.502 100.695C299.742 100.065 300.087 99.495 300.537 98.985C300.987 98.465 301.537 98.055 302.187 97.755C302.837 97.445 303.577 97.29 304.407 97.29C305.387 97.29 306.232 97.505 306.942 97.935C307.662 98.365 308.197 98.925 308.547 99.615L306.957 100.71C306.777 100.31 306.542 99.995 306.252 99.765C305.962 99.525 305.652 99.36 305.322 99.27C304.992 99.17 304.667 99.12 304.347 99.12C303.827 99.12 303.372 99.225 302.982 99.435C302.602 99.645 302.282 99.92 302.022 100.26C301.762 100.6 301.567 100.98 301.437 101.4C301.317 101.82 301.257 102.24 301.257 102.66C301.257 103.13 301.332 103.585 301.482 104.025C301.632 104.455 301.842 104.84 302.112 105.18C302.392 105.51 302.722 105.775 303.102 105.975C303.492 106.165 303.917 106.26 304.377 106.26C304.707 106.26 305.042 106.205 305.382 106.095C305.722 105.985 306.037 105.81 306.327 105.57C306.617 105.33 306.842 105.02 307.002 104.64L308.697 105.615C308.487 106.145 308.142 106.595 307.662 106.965C307.192 107.335 306.662 107.615 306.072 107.805C305.482 107.995 304.897 108.09 304.317 108.09C303.557 108.09 302.862 107.935 302.232 107.625C301.602 107.305 301.057 106.885 300.597 106.365C300.147 105.835 299.792 105.245 299.532 104.595C299.282 103.935 299.157 103.27 299.157 102.6ZM318.08 100.14C318.01 100.07 317.88 99.975 317.69 99.855C317.51 99.735 317.285 99.62 317.015 99.51C316.755 99.4 316.47 99.305 316.16 99.225C315.85 99.135 315.535 99.09 315.215 99.09C314.655 99.09 314.23 99.195 313.94 99.405C313.66 99.615 313.52 99.91 313.52 100.29C313.52 100.58 313.61 100.81 313.79 100.98C313.97 101.15 314.24 101.295 314.6 101.415C314.96 101.535 315.41 101.665 315.95 101.805C316.65 101.975 317.255 102.185 317.765 102.435C318.285 102.675 318.68 102.995 318.95 103.395C319.23 103.785 319.37 104.305 319.37 104.955C319.37 105.525 319.265 106.015 319.055 106.425C318.845 106.825 318.555 107.15 318.185 107.4C317.815 107.65 317.395 107.835 316.925 107.955C316.455 108.065 315.955 108.12 315.425 108.12C314.895 108.12 314.365 108.065 313.835 107.955C313.305 107.845 312.795 107.69 312.305 107.49C311.815 107.28 311.365 107.03 310.955 106.74L311.87 104.955C311.96 105.045 312.12 105.165 312.35 105.315C312.58 105.455 312.86 105.6 313.19 105.75C313.52 105.89 313.88 106.01 314.27 106.11C314.66 106.21 315.055 106.26 315.455 106.26C316.015 106.26 316.44 106.165 316.73 105.975C317.02 105.785 317.165 105.515 317.165 105.165C317.165 104.845 317.05 104.595 316.82 104.415C316.59 104.235 316.27 104.08 315.86 103.95C315.45 103.81 314.965 103.66 314.405 103.5C313.735 103.31 313.175 103.1 312.725 102.87C312.275 102.63 311.94 102.33 311.72 101.97C311.5 101.61 311.39 101.16 311.39 100.62C311.39 99.89 311.56 99.28 311.9 98.79C312.25 98.29 312.72 97.915 313.31 97.665C313.9 97.405 314.555 97.275 315.275 97.275C315.775 97.275 316.245 97.33 316.685 97.44C317.135 97.55 317.555 97.695 317.945 97.875C318.335 98.055 318.685 98.25 318.995 98.46L318.08 100.14ZM329.979 106.185V108H322.584V97.35H329.844V99.165H324.654V101.73H329.139V103.41H324.654V106.185H329.979ZM333.228 109.725L333.633 107.94H333.003V105.84H334.743V107.94L334.128 109.725H333.228ZM342.988 102.6C342.988 101.95 343.103 101.315 343.333 100.695C343.573 100.065 343.918 99.495 344.368 98.985C344.818 98.465 345.368 98.055 346.018 97.755C346.668 97.445 347.408 97.29 348.238 97.29C349.218 97.29 350.063 97.505 350.773 97.935C351.493 98.365 352.028 98.925 352.378 99.615L350.788 100.71C350.608 100.31 350.373 99.995 350.083 99.765C349.793 99.525 349.483 99.36 349.153 99.27C348.823 99.17 348.498 99.12 348.178 99.12C347.658 99.12 347.203 99.225 346.813 99.435C346.433 99.645 346.113 99.92 345.853 100.26C345.593 100.6 345.398 100.98 345.268 101.4C345.148 101.82 345.088 102.24 345.088 102.66C345.088 103.13 345.163 103.585 345.313 104.025C345.463 104.455 345.673 104.84 345.943 105.18C346.223 105.51 346.553 105.775 346.933 105.975C347.323 106.165 347.748 106.26 348.208 106.26C348.538 106.26 348.873 106.205 349.213 106.095C349.553 105.985 349.868 105.81 350.158 105.57C350.448 105.33 350.673 105.02 350.833 104.64L352.528 105.615C352.318 106.145 351.973 106.595 351.493 106.965C351.023 107.335 350.493 107.615 349.903 107.805C349.313 107.995 348.728 108.09 348.148 108.09C347.388 108.09 346.693 107.935 346.063 107.625C345.433 107.305 344.888 106.885 344.428 106.365C343.978 105.835 343.623 105.245 343.363 104.595C343.113 103.935 342.988 103.27 342.988 102.6ZM354.789 102.6C354.789 101.95 354.904 101.315 355.134 100.695C355.374 100.065 355.719 99.495 356.169 98.985C356.619 98.465 357.169 98.055 357.819 97.755C358.469 97.445 359.209 97.29 360.039 97.29C361.019 97.29 361.864 97.505 362.574 97.935C363.294 98.365 363.829 98.925 364.179 99.615L362.589 100.71C362.409 100.31 362.174 99.995 361.884 99.765C361.594 99.525 361.284 99.36 360.954 99.27C360.624 99.17 360.299 99.12 359.979 99.12C359.459 99.12 359.004 99.225 358.614 99.435C358.234 99.645 357.914 99.92 357.654 100.26C357.394 100.6 357.199 100.98 357.069 101.4C356.949 101.82 356.889 102.24 356.889 102.66C356.889 103.13 356.964 103.585 357.114 104.025C357.264 104.455 357.474 104.84 357.744 105.18C358.024 105.51 358.354 105.775 358.734 105.975C359.124 106.165 359.549 106.26 360.009 106.26C360.339 106.26 360.674 106.205 361.014 106.095C361.354 105.985 361.669 105.81 361.959 105.57C362.249 105.33 362.474 105.02 362.634 104.64L364.329 105.615C364.119 106.145 363.774 106.595 363.294 106.965C362.824 107.335 362.294 107.615 361.704 107.805C361.114 107.995 360.529 108.09 359.949 108.09C359.189 108.09 358.494 107.935 357.864 107.625C357.234 107.305 356.689 106.885 356.229 106.365C355.779 105.835 355.424 105.245 355.164 104.595C354.914 103.935 354.789 103.27 354.789 102.6ZM374.762 106.185V108H367.367V97.35H374.627V99.165H369.437V101.73H373.922V103.41H369.437V106.185H374.762ZM385.991 99.165H382.586V108H380.531V99.165H377.126V97.35H385.991V99.165Z" fill="#DFFF1B"/>
</svg>
