<svg width="390" height="133" viewBox="0 0 390 133" fill="none" xmlns="http://www.w3.org/2000/svg">
<path d="M141 95H40L46 105H121.5L110.5 123H49L13 66L20.5 55H41.5L48 43.5H15.5L0 66L43.5 133H117L141 95Z" fill="white"/>
<path d="M37 89.5L30 79H52.5L43.5 67L61.5 40L17.5 39.5L44 0H115.5L141.5 39L84.5 40L90.5 28.5H121L110 11.5H49.5L39.5 27.5H81.5L58 66.5L72 89.5H37Z" fill="white"/>
<path d="M43.5 116H114.694L115.5 115H41" stroke="white"/>
<path d="M45.9621 16H113.005L114 17H45" stroke="white"/>
<path d="M100.25 83.23C97.8887 83.23 95.7573 82.77 93.856 81.85C91.9547 80.93 90.314 79.688 88.934 78.124C87.554 76.5293 86.4807 74.7507 85.714 72.788C84.978 70.7947 84.61 68.7553 84.61 66.67C84.61 64.4927 85.0087 62.4227 85.806 60.46C86.6033 58.4667 87.7073 56.7033 89.118 55.17C90.5287 53.606 92.1847 52.3793 94.086 51.49C96.018 50.57 98.1033 50.11 100.342 50.11C102.673 50.11 104.789 50.5853 106.69 51.536C108.622 52.4867 110.263 53.7593 111.612 55.354C112.992 56.9487 114.05 58.7273 114.786 60.69C115.553 62.6527 115.936 64.6613 115.936 66.716C115.936 68.8933 115.537 70.9787 114.74 72.972C113.973 74.9347 112.885 76.698 111.474 78.262C110.063 79.7953 108.392 81.0067 106.46 81.896C104.559 82.7853 102.489 83.23 100.25 83.23ZM89.854 66.67C89.854 68.2033 90.0993 69.6907 90.59 71.132C91.0807 72.5733 91.7707 73.8613 92.66 74.996C93.58 76.1 94.684 76.974 95.972 77.618C97.26 78.262 98.7013 78.584 100.296 78.584C101.952 78.584 103.424 78.2467 104.712 77.572C106 76.8973 107.073 75.9927 107.932 74.858C108.821 73.6927 109.496 72.4047 109.956 70.994C110.416 69.5527 110.646 68.1113 110.646 66.67C110.646 65.1367 110.401 63.6647 109.91 62.254C109.45 60.8127 108.76 59.54 107.84 58.436C106.92 57.3013 105.816 56.412 104.528 55.768C103.271 55.124 101.86 54.802 100.296 54.802C98.64 54.802 97.168 55.1393 95.88 55.814C94.592 56.4887 93.5033 57.3933 92.614 58.528C91.7247 59.6627 91.0347 60.9353 90.544 62.346C90.084 63.7567 89.854 65.198 89.854 66.67ZM151.998 74.582C151.998 76.33 151.538 77.8327 150.618 79.09C149.729 80.3473 148.517 81.3133 146.984 81.988C145.451 82.6627 143.764 83 141.924 83H126.33V50.34H143.166C144.699 50.34 146.018 50.754 147.122 51.582C148.257 52.3793 149.115 53.422 149.698 54.71C150.311 55.9673 150.618 57.286 150.618 58.666C150.618 60.2607 150.204 61.7633 149.376 63.174C148.579 64.554 147.429 65.5813 145.926 66.256C147.797 66.808 149.269 67.82 150.342 69.292C151.446 70.7333 151.998 72.4967 151.998 74.582ZM146.708 73.616C146.708 72.696 146.509 71.868 146.11 71.132C145.742 70.3653 145.221 69.752 144.546 69.292C143.902 68.8013 143.135 68.556 142.246 68.556H131.482V78.538H141.924C142.844 78.538 143.657 78.3233 144.362 77.894C145.098 77.434 145.665 76.836 146.064 76.1C146.493 75.3333 146.708 74.5053 146.708 73.616ZM131.482 54.802V64.416H140.958C141.817 64.416 142.583 64.2167 143.258 63.818C143.933 63.3887 144.469 62.8213 144.868 62.116C145.267 61.38 145.466 60.552 145.466 59.632C145.466 58.6813 145.282 57.8533 144.914 57.148C144.546 56.412 144.04 55.8447 143.396 55.446C142.783 55.0167 142.062 54.802 141.234 54.802H131.482ZM160.361 66.44C160.361 64.4467 160.714 62.4993 161.419 60.598C162.124 58.666 163.152 56.918 164.501 55.354C165.881 53.7593 167.552 52.502 169.515 51.582C171.478 50.6313 173.701 50.156 176.185 50.156C179.129 50.156 181.674 50.8307 183.821 52.18C185.968 53.4987 187.562 55.2007 188.605 57.286L184.557 60C183.944 58.6813 183.162 57.6387 182.211 56.872C181.291 56.1053 180.279 55.5687 179.175 55.262C178.102 54.9553 177.044 54.802 176.001 54.802C174.284 54.802 172.781 55.1547 171.493 55.86C170.205 56.5347 169.116 57.4393 168.227 58.574C167.368 59.7087 166.709 60.9813 166.249 62.392C165.82 63.8027 165.605 65.2133 165.605 66.624C165.605 68.188 165.866 69.706 166.387 71.178C166.908 72.6193 167.629 73.9073 168.549 75.042C169.5 76.146 170.619 77.02 171.907 77.664C173.195 78.308 174.606 78.63 176.139 78.63C177.182 78.63 178.27 78.446 179.405 78.078C180.54 77.71 181.582 77.1427 182.533 76.376C183.514 75.5787 184.281 74.536 184.833 73.248L189.111 75.686C188.436 77.3113 187.378 78.6913 185.937 79.826C184.526 80.9607 182.932 81.8193 181.153 82.402C179.405 82.9847 177.672 83.276 175.955 83.276C173.655 83.276 171.554 82.8007 169.653 81.85C167.752 80.8687 166.111 79.5807 164.731 77.986C163.351 76.3607 162.278 74.5513 161.511 72.558C160.744 70.534 160.361 68.4947 160.361 66.44ZM200.475 50.34L209.491 66.578L218.599 50.34H224.257L212.067 71.316V83H206.915V71.224L194.817 50.34H200.475ZM233.375 83V50.34H244.967C248.494 50.34 251.438 51.076 253.799 52.548C256.16 53.9893 257.924 55.952 259.089 58.436C260.285 60.8893 260.883 63.6187 260.883 66.624C260.883 69.936 260.224 72.8187 258.905 75.272C257.617 77.7253 255.777 79.6267 253.385 80.976C250.993 82.3253 248.187 83 244.967 83H233.375ZM255.639 66.624C255.639 64.324 255.21 62.3 254.351 60.552C253.523 58.7733 252.312 57.3933 250.717 56.412C249.153 55.4 247.236 54.894 244.967 54.894H238.527V78.446H244.967C247.267 78.446 249.199 77.9247 250.763 76.882C252.358 75.8393 253.569 74.4287 254.397 72.65C255.225 70.8713 255.639 68.8627 255.639 66.624ZM271.363 83V50.34H276.515V83H271.363ZM298.386 50.34H303.262L315.958 83H310.53L307.08 74.122H294.476L291.072 83H285.598L298.386 50.34ZM306.068 70.304L300.824 55.998L295.396 70.304H306.068ZM330.209 59.908V83H325.057V50.34H329.289L347.781 73.938V50.386H352.979V83H348.471L330.209 59.908ZM384.701 58.022C384.394 57.6847 383.949 57.332 383.367 56.964C382.784 56.5653 382.094 56.1973 381.297 55.86C380.499 55.5227 379.641 55.2467 378.721 55.032C377.801 54.8173 376.85 54.71 375.869 54.71C373.722 54.71 372.127 55.1087 371.085 55.906C370.042 56.7033 369.521 57.8073 369.521 59.218C369.521 60.2607 369.812 61.0887 370.395 61.702C370.977 62.2847 371.867 62.7753 373.063 63.174C374.259 63.5727 375.761 64.002 377.571 64.462C379.779 64.9833 381.695 65.612 383.321 66.348C384.946 67.0533 386.188 68.004 387.047 69.2C387.905 70.396 388.335 71.9753 388.335 73.938C388.335 75.594 388.028 77.02 387.415 78.216C386.801 79.412 385.943 80.3933 384.839 81.16C383.735 81.896 382.462 82.448 381.021 82.816C379.579 83.1533 378.031 83.322 376.375 83.322C374.749 83.322 373.124 83.1533 371.499 82.816C369.904 82.4787 368.371 81.988 366.899 81.344C365.457 80.6693 364.123 79.8567 362.897 78.906L365.243 74.49C365.641 74.8887 366.209 75.3333 366.945 75.824C367.711 76.284 368.585 76.7287 369.567 77.158C370.579 77.5873 371.667 77.9553 372.833 78.262C374.029 78.538 375.24 78.676 376.467 78.676C378.521 78.676 380.085 78.3233 381.159 77.618C382.263 76.882 382.815 75.8393 382.815 74.49C382.815 73.386 382.462 72.512 381.757 71.868C381.051 71.1933 380.024 70.626 378.675 70.166C377.325 69.706 375.715 69.246 373.845 68.786C371.698 68.2033 369.904 67.5747 368.463 66.9C367.021 66.1947 365.933 65.3053 365.197 64.232C364.491 63.128 364.139 61.7327 364.139 60.046C364.139 57.8993 364.66 56.09 365.703 54.618C366.745 53.1153 368.156 51.996 369.935 51.26C371.744 50.4933 373.768 50.11 376.007 50.11C377.479 50.11 378.874 50.2787 380.193 50.616C381.511 50.9227 382.738 51.352 383.873 51.904C385.038 52.456 386.096 53.0847 387.047 53.79L384.701 58.022Z" fill="white"/>
<path d="M149.11 106V95.35H152.98C154.14 95.35 155.11 95.59 155.89 96.07C156.67 96.54 157.255 97.18 157.645 97.99C158.035 98.79 158.23 99.68 158.23 100.66C158.23 101.74 158.015 102.68 157.585 103.48C157.155 104.28 156.545 104.9 155.755 105.34C154.975 105.78 154.05 106 152.98 106H149.11ZM156.145 100.66C156.145 99.97 156.02 99.365 155.77 98.845C155.52 98.315 155.16 97.905 154.69 97.615C154.22 97.315 153.65 97.165 152.98 97.165H151.18V104.185H152.98C153.66 104.185 154.235 104.035 154.705 103.735C155.175 103.425 155.53 103.005 155.77 102.475C156.02 101.935 156.145 101.33 156.145 100.66ZM168.892 104.185V106H161.497V95.35H168.757V97.165H163.567V99.73H168.052V101.41H163.567V104.185H168.892ZM172.156 106V95.35H176.671C177.161 95.35 177.611 95.45 178.021 95.65C178.431 95.85 178.786 96.12 179.086 96.46C179.396 96.8 179.636 97.18 179.806 97.6C179.976 98.02 180.061 98.45 180.061 98.89C180.061 99.49 179.921 100.06 179.641 100.6C179.361 101.14 178.976 101.58 178.486 101.92C177.996 102.26 177.416 102.43 176.746 102.43H174.226V106H172.156ZM174.226 100.615H176.626C176.876 100.615 177.101 100.545 177.301 100.405C177.501 100.265 177.661 100.065 177.781 99.805C177.901 99.535 177.961 99.23 177.961 98.89C177.961 98.52 177.891 98.205 177.751 97.945C177.621 97.685 177.446 97.49 177.226 97.36C177.016 97.23 176.786 97.165 176.536 97.165H174.226V100.615ZM185.27 95.35H187.37L191.285 106H189.155L188.165 103.345H184.445L183.47 106H181.34L185.27 95.35ZM187.79 101.89L186.32 97.495L184.79 101.89H187.79ZM194.104 106V95.35H198.814C199.304 95.35 199.754 95.45 200.164 95.65C200.584 95.85 200.944 96.12 201.244 96.46C201.554 96.8 201.789 97.18 201.949 97.6C202.119 98.02 202.204 98.45 202.204 98.89C202.204 99.34 202.124 99.775 201.964 100.195C201.814 100.605 201.594 100.965 201.304 101.275C201.014 101.585 200.674 101.825 200.284 101.995L202.714 106H200.434L198.244 102.43H196.174V106H194.104ZM196.174 100.615H198.769C199.029 100.615 199.259 100.54 199.459 100.39C199.659 100.23 199.819 100.02 199.939 99.76C200.059 99.5 200.119 99.21 200.119 98.89C200.119 98.55 200.049 98.255 199.909 98.005C199.769 97.745 199.589 97.54 199.369 97.39C199.159 97.24 198.929 97.165 198.679 97.165H196.174V100.615ZM213.577 97.165H210.172V106H208.117V97.165H204.712V95.35H213.577V97.165ZM225.234 106V99.01L222.504 104.215H221.349L218.619 99.01V106H216.549V95.35H218.769L221.919 101.41L225.099 95.35H227.304V106H225.234ZM238.573 104.185V106H231.178V95.35H238.438V97.165H233.248V99.73H237.733V101.41H233.248V104.185H238.573ZM243.906 99.16V106H241.836V95.35H243.486L248.991 102.37V95.365H251.061V106H249.336L243.906 99.16ZM262.892 97.165H259.487V106H257.432V97.165H254.027V95.35H262.892V97.165ZM275.223 106.075C274.443 106.075 273.733 105.925 273.093 105.625C272.463 105.325 271.918 104.92 271.458 104.41C271.008 103.89 270.658 103.31 270.408 102.67C270.158 102.02 270.033 101.355 270.033 100.675C270.033 99.965 270.163 99.29 270.423 98.65C270.693 98 271.058 97.425 271.518 96.925C271.988 96.415 272.538 96.015 273.168 95.725C273.808 95.425 274.508 95.275 275.268 95.275C276.038 95.275 276.738 95.43 277.368 95.74C278.008 96.05 278.553 96.465 279.003 96.985C279.453 97.505 279.803 98.085 280.053 98.725C280.303 99.365 280.428 100.025 280.428 100.705C280.428 101.405 280.298 102.08 280.038 102.73C279.778 103.37 279.413 103.945 278.943 104.455C278.483 104.955 277.933 105.35 277.293 105.64C276.663 105.93 275.973 106.075 275.223 106.075ZM272.133 100.675C272.133 101.135 272.203 101.58 272.343 102.01C272.483 102.44 272.683 102.825 272.943 103.165C273.213 103.495 273.538 103.76 273.918 103.96C274.308 104.15 274.748 104.245 275.238 104.245C275.738 104.245 276.183 104.145 276.573 103.945C276.963 103.735 277.288 103.46 277.548 103.12C277.808 102.77 278.003 102.385 278.133 101.965C278.273 101.535 278.343 101.105 278.343 100.675C278.343 100.215 278.268 99.775 278.118 99.355C277.978 98.925 277.773 98.545 277.503 98.215C277.243 97.875 276.918 97.61 276.528 97.42C276.148 97.22 275.718 97.12 275.238 97.12C274.728 97.12 274.278 97.225 273.888 97.435C273.508 97.635 273.188 97.905 272.928 98.245C272.668 98.585 272.468 98.965 272.328 99.385C272.198 99.805 272.133 100.235 272.133 100.675ZM283.666 106V95.35H290.821V97.165H285.736V99.91H289.966V101.59H285.736V106H283.666ZM298.157 100.6C298.157 99.95 298.272 99.315 298.502 98.695C298.742 98.065 299.087 97.495 299.537 96.985C299.987 96.465 300.537 96.055 301.187 95.755C301.837 95.445 302.577 95.29 303.407 95.29C304.387 95.29 305.232 95.505 305.942 95.935C306.662 96.365 307.197 96.925 307.547 97.615L305.957 98.71C305.777 98.31 305.542 97.995 305.252 97.765C304.962 97.525 304.652 97.36 304.322 97.27C303.992 97.17 303.667 97.12 303.347 97.12C302.827 97.12 302.372 97.225 301.982 97.435C301.602 97.645 301.282 97.92 301.022 98.26C300.762 98.6 300.567 98.98 300.437 99.4C300.317 99.82 300.257 100.24 300.257 100.66C300.257 101.13 300.332 101.585 300.482 102.025C300.632 102.455 300.842 102.84 301.112 103.18C301.392 103.51 301.722 103.775 302.102 103.975C302.492 104.165 302.917 104.26 303.377 104.26C303.707 104.26 304.042 104.205 304.382 104.095C304.722 103.985 305.037 103.81 305.327 103.57C305.617 103.33 305.842 103.02 306.002 102.64L307.697 103.615C307.487 104.145 307.142 104.595 306.662 104.965C306.192 105.335 305.662 105.615 305.072 105.805C304.482 105.995 303.897 106.09 303.317 106.09C302.557 106.09 301.862 105.935 301.232 105.625C300.602 105.305 300.057 104.885 299.597 104.365C299.147 103.835 298.792 103.245 298.532 102.595C298.282 101.935 298.157 101.27 298.157 100.6ZM317.08 98.14C317.01 98.07 316.88 97.975 316.69 97.855C316.51 97.735 316.285 97.62 316.015 97.51C315.755 97.4 315.47 97.305 315.16 97.225C314.85 97.135 314.535 97.09 314.215 97.09C313.655 97.09 313.23 97.195 312.94 97.405C312.66 97.615 312.52 97.91 312.52 98.29C312.52 98.58 312.61 98.81 312.79 98.98C312.97 99.15 313.24 99.295 313.6 99.415C313.96 99.535 314.41 99.665 314.95 99.805C315.65 99.975 316.255 100.185 316.765 100.435C317.285 100.675 317.68 100.995 317.95 101.395C318.23 101.785 318.37 102.305 318.37 102.955C318.37 103.525 318.265 104.015 318.055 104.425C317.845 104.825 317.555 105.15 317.185 105.4C316.815 105.65 316.395 105.835 315.925 105.955C315.455 106.065 314.955 106.12 314.425 106.12C313.895 106.12 313.365 106.065 312.835 105.955C312.305 105.845 311.795 105.69 311.305 105.49C310.815 105.28 310.365 105.03 309.955 104.74L310.87 102.955C310.96 103.045 311.12 103.165 311.35 103.315C311.58 103.455 311.86 103.6 312.19 103.75C312.52 103.89 312.88 104.01 313.27 104.11C313.66 104.21 314.055 104.26 314.455 104.26C315.015 104.26 315.44 104.165 315.73 103.975C316.02 103.785 316.165 103.515 316.165 103.165C316.165 102.845 316.05 102.595 315.82 102.415C315.59 102.235 315.27 102.08 314.86 101.95C314.45 101.81 313.965 101.66 313.405 101.5C312.735 101.31 312.175 101.1 311.725 100.87C311.275 100.63 310.94 100.33 310.72 99.97C310.5 99.61 310.39 99.16 310.39 98.62C310.39 97.89 310.56 97.28 310.9 96.79C311.25 96.29 311.72 95.915 312.31 95.665C312.9 95.405 313.555 95.275 314.275 95.275C314.775 95.275 315.245 95.33 315.685 95.44C316.135 95.55 316.555 95.695 316.945 95.875C317.335 96.055 317.685 96.25 317.995 96.46L317.08 98.14ZM328.979 104.185V106H321.584V95.35H328.844V97.165H323.654V99.73H328.139V101.41H323.654V104.185H328.979ZM332.228 107.725L332.633 105.94H332.003V103.84H333.743V105.94L333.128 107.725H332.228ZM341.988 100.6C341.988 99.95 342.103 99.315 342.333 98.695C342.573 98.065 342.918 97.495 343.368 96.985C343.818 96.465 344.368 96.055 345.018 95.755C345.668 95.445 346.408 95.29 347.238 95.29C348.218 95.29 349.063 95.505 349.773 95.935C350.493 96.365 351.028 96.925 351.378 97.615L349.788 98.71C349.608 98.31 349.373 97.995 349.083 97.765C348.793 97.525 348.483 97.36 348.153 97.27C347.823 97.17 347.498 97.12 347.178 97.12C346.658 97.12 346.203 97.225 345.813 97.435C345.433 97.645 345.113 97.92 344.853 98.26C344.593 98.6 344.398 98.98 344.268 99.4C344.148 99.82 344.088 100.24 344.088 100.66C344.088 101.13 344.163 101.585 344.313 102.025C344.463 102.455 344.673 102.84 344.943 103.18C345.223 103.51 345.553 103.775 345.933 103.975C346.323 104.165 346.748 104.26 347.208 104.26C347.538 104.26 347.873 104.205 348.213 104.095C348.553 103.985 348.868 103.81 349.158 103.57C349.448 103.33 349.673 103.02 349.833 102.64L351.528 103.615C351.318 104.145 350.973 104.595 350.493 104.965C350.023 105.335 349.493 105.615 348.903 105.805C348.313 105.995 347.728 106.09 347.148 106.09C346.388 106.09 345.693 105.935 345.063 105.625C344.433 105.305 343.888 104.885 343.428 104.365C342.978 103.835 342.623 103.245 342.363 102.595C342.113 101.935 341.988 101.27 341.988 100.6ZM353.789 100.6C353.789 99.95 353.904 99.315 354.134 98.695C354.374 98.065 354.719 97.495 355.169 96.985C355.619 96.465 356.169 96.055 356.819 95.755C357.469 95.445 358.209 95.29 359.039 95.29C360.019 95.29 360.864 95.505 361.574 95.935C362.294 96.365 362.829 96.925 363.179 97.615L361.589 98.71C361.409 98.31 361.174 97.995 360.884 97.765C360.594 97.525 360.284 97.36 359.954 97.27C359.624 97.17 359.299 97.12 358.979 97.12C358.459 97.12 358.004 97.225 357.614 97.435C357.234 97.645 356.914 97.92 356.654 98.26C356.394 98.6 356.199 98.98 356.069 99.4C355.949 99.82 355.889 100.24 355.889 100.66C355.889 101.13 355.964 101.585 356.114 102.025C356.264 102.455 356.474 102.84 356.744 103.18C357.024 103.51 357.354 103.775 357.734 103.975C358.124 104.165 358.549 104.26 359.009 104.26C359.339 104.26 359.674 104.205 360.014 104.095C360.354 103.985 360.669 103.81 360.959 103.57C361.249 103.33 361.474 103.02 361.634 102.64L363.329 103.615C363.119 104.145 362.774 104.595 362.294 104.965C361.824 105.335 361.294 105.615 360.704 105.805C360.114 105.995 359.529 106.09 358.949 106.09C358.189 106.09 357.494 105.935 356.864 105.625C356.234 105.305 355.689 104.885 355.229 104.365C354.779 103.835 354.424 103.245 354.164 102.595C353.914 101.935 353.789 101.27 353.789 100.6ZM373.762 104.185V106H366.367V95.35H373.627V97.165H368.437V99.73H372.922V101.41H368.437V104.185H373.762ZM384.991 97.165H381.586V106H379.531V97.165H376.126V95.35H384.991V97.165Z" fill="white"/>
</svg>
