<svg width="142" height="133" viewBox="0 0 142 133" fill="none" xmlns="http://www.w3.org/2000/svg">
<path d="M141 95H40L46 105H121.5L110.5 123H49L13 66L20.5 55H41.5L48 43.5H15.5L0 66L43.5 133H117L141 95Z" fill="#DFFF1B"/>
<path d="M37 89.5L30 79H52.5L43.5 67L61.5 40L17.5 39.5L44 0H115.5L141.5 39L84.5 40L90.5 28.5H121L110 11.5H49.5L39.5 27.5H81.5L58 66.5L72 89.5H37Z" fill="#DFFF1B"/>
<path d="M43.5 116H114.694L115.5 115H41" stroke="#DFFF1B"/>
<path d="M45.9621 16H113.005L114 17H45" stroke="#DFFF1B"/>
</svg>
